# xmcd CD database file
#
# Track frame offsets:
#	150
#	2617
#	5067
#	11985
#	14055
#	32472
#	40417
#	42355
#	63497
#	67710
#	69507
#	82842
#	90082
#	92040
#	114792
#	124880
#	126740
#	150840
#	169480
#	172297
#	174655
#	187262
#	195397
#	197620
#	220070
#	221902
#	223442
#	235380
#	241975
#	244487
#	246027
#	261755
#	266887
#	268182
#	281065
#	288700
#	290305
#	312245
#
# Disc length: 4251 seconds
#
# Revision: 1
# Processed by: cddbd v1.5.2PL0 Copyright (c) Steve Scherf et al.
# Submitted via: CDex 1.51
#
DISCID=47109926
DTITLE=Dix Bruce - Backup Trax - Swing and Jaz Vol 1
DYEAR=1992
DGENRE=Jazz
TTITLE0=Introduction
TTITLE1=Tuning
TTITLE2=Cycles Slow
TTITLE3=Cycles Licks
TTITLE4=Cycles
TTITLE5=Hollyhock Tulip Slow
TTITLE6=Hollyhock Tulip Licks
TTITLE7=Hollyhock Tulip
TTITLE8=Blues in G Slow
TTITLE9=Blues in G Licks
TTITLE10=Blues in G
TTITLE11=Slow Rhythm Slow
TTITLE12=Slow Rhythm Licks
TTITLE13=Slow Rhythm
TTITLE14=Michigan Slow
TTITLE15=Michigan Licks
TTITLE16=Michigan
TTITLE17=Fast Rhythm
TTITLE18=Fast Blues Slow
TTITLE19=Fast Blues Licks
TTITLE20=Fast Blues
TTITLE21=Gal Be Bad Slow
TTITLE22=Gal Be Bad Licks
TTITLE23=Gal Be Bad
TTITLE24=Blues in C Minor Slow
TTITLE25=Blues in C Minor Licks
TTITLE26=Blues in C Minor
TTITLE27=Solo in the Sun Slow
TTITLE28=Solo in the Sun Lick 1
TTITLE29=Solo in the Sun Lick 2
TTITLE30=Solo in the Sun
TTITLE31=6-8 Waltz Slow
TTITLE32=6-8 Waltz  Licks
TTITLE33=6-8 Waltz 
TTITLE34=Yellowstone Slow
TTITLE35=Yellowstone Licks
TTITLE36=Yellowstone
TTITLE37=Closing
EXTD=YEAR: 1992
EXTT0=
EXTT1=
EXTT2=
EXTT3=
EXTT4=
EXTT5=
EXTT6=
EXTT7=
EXTT8=
EXTT9=
EXTT10=
EXTT11=
EXTT12=
EXTT13=
EXTT14=
EXTT15=
EXTT16=
EXTT17=
EXTT18=
EXTT19=
EXTT20=
EXTT21=
EXTT22=
EXTT23=
EXTT24=
EXTT25=
EXTT26=
EXTT27=
EXTT28=
EXTT29=
EXTT30=
EXTT31=
EXTT32=
EXTT33=
EXTT34=
EXTT35=
EXTT36=
EXTT37=
PLAYORDER=
